<svg width="39" height="47" viewBox="0 0 39 47" fill="none" xmlns="http://www.w3.org/2000/svg">
<path fill-rule="evenodd" clip-rule="evenodd" d="M28.3503 0.0238611C26.3736 0.214361 24.0529 1.3593 22.4247 2.94736C20.6828 4.64628 19.5057 7.00795 19.2993 9.21795C19.2676 9.55733 19.2822 10.3649 19.3241 10.5905L19.3524 10.743L19.5485 10.7708C19.8348 10.8115 20.5394 10.787 20.9013 10.7239C22.2825 10.4831 23.7208 9.80336 25.0064 8.78394C25.395 8.47571 26.1137 7.74832 26.4676 7.30502C26.9826 6.65981 27.4199 5.97031 27.7729 5.2468C28.2871 4.19306 28.5917 3.19622 28.7583 2.02226C28.8064 1.68297 28.8286 0.625799 28.7933 0.35281C28.7445 -0.0241183 28.7538 -0.00209532 28.6457 0.00142652C28.5936 0.00311883 28.4607 0.013227 28.3503 0.0238611ZM27.4648 11.3344C26.9325 11.3658 26.2107 11.4822 25.5781 11.6385C24.7453 11.8443 24.1204 12.0567 22.6508 12.6334C21.4585 13.1013 21.0887 13.2316 20.6091 13.353C20.0006 13.5071 19.4668 13.5032 18.8088 13.3401C18.3429 13.2246 18.0025 13.1035 16.778 12.618C15.5996 12.1508 15.1699 11.9952 14.6123 11.8339C13.2546 11.4412 12.171 11.3539 10.8046 11.5269C9.33133 11.7134 7.90583 12.2017 6.61958 12.9604C4.11891 14.4353 2.25071 16.8175 1.24482 19.8138C0.501866 22.0269 0.241753 24.5356 0.469392 27.2926C0.677844 29.817 1.29497 32.4966 2.25225 35.0338C2.86672 36.6624 3.69771 38.378 4.52303 39.722C5.2776 40.9507 6.79844 43.0136 7.7433 44.09C9.50082 46.0922 11.1309 46.945 12.9522 46.815C13.9111 46.7465 14.5192 46.5756 15.9953 45.9597C16.9476 45.5623 17.3453 45.4137 17.8379 45.2713C19.3272 44.8406 21.01 44.8028 22.4679 45.1671C23.078 45.3196 23.4292 45.4466 24.4689 45.8908C25.7585 46.4417 26.2525 46.5974 27.0646 46.7089C27.4251 46.7584 28.1982 46.7776 28.5053 46.7447C29.9245 46.5927 31.2196 45.8881 32.508 44.5669C33.2943 43.7607 34.0896 42.7472 35.2333 41.0941C36.4941 39.2717 37.6169 37.0471 38.315 34.9881C38.5272 34.3623 38.5285 34.3564 38.4605 34.3354C38.2303 34.2642 37.3494 33.7807 36.8869 33.4717C34.2439 31.7062 32.6482 29.1609 32.3034 26.1606C32.0165 23.665 32.567 21.2914 33.9024 19.2656C34.6764 18.0912 35.795 16.9715 36.9955 16.1691C37.1496 16.0662 37.2756 15.9708 37.2756 15.9573C37.2756 15.9185 36.9617 15.4984 36.6892 15.1723C34.762 12.867 32.0382 11.5423 28.8141 11.3422C28.4669 11.3206 27.7668 11.3166 27.4648 11.3344Z" fill="#2D2D2D"/>
</svg>
