<svg width="37" height="37" viewBox="0 0 37 37" fill="none" xmlns="http://www.w3.org/2000/svg">
<path d="M31.49 11.2881C30.1811 9.0197 28.2973 7.13643 26.0285 5.82812C23.729 4.48862 21.2195 3.81812 18.5 3.81812C15.7805 3.81812 13.271 4.48862 10.97 5.82812C8.6705 7.16762 6.8495 8.98862 5.51 11.2881C4.1705 13.5876 3.5 16.0986 3.5 18.8181C3.5 21.5376 4.169 24.0486 5.51 26.3481C6.81848 28.6169 8.70238 30.5003 10.9715 31.8081C13.271 33.1476 15.7805 33.8181 18.5 33.8181C21.2195 33.8181 23.729 33.1476 26.03 31.8081C28.2988 30.4998 30.1826 28.6165 31.4915 26.3481C32.831 24.0486 33.5 21.5376 33.5 18.8181C33.5 16.0986 32.831 13.5876 31.49 11.2881ZM18.5 6.30812C21.5 6.30812 24.158 7.26812 26.48 9.18662C25.1 10.9476 23.051 12.3966 20.33 13.5366C18.827 10.8171 17.198 8.54612 15.4385 6.72662C16.4357 6.45089 17.4654 6.31013 18.5 6.30812V6.30812ZM8.765 11.0181C9.86186 9.62526 11.2497 8.48877 12.8315 7.68812C14.6495 9.48962 16.319 11.7381 17.8415 14.4381C14.8415 15.3381 11.6705 15.7881 8.33 15.7881C7.4705 15.7881 6.821 15.7686 6.38 15.7281C6.83971 14.0097 7.65192 12.4057 8.765 11.0181V11.0181ZM5.99 18.8181C5.99 18.7371 5.9945 18.6381 6.005 18.5181C6.0155 18.3981 6.02 18.2991 6.02 18.2181C6.401 18.2391 6.9815 18.2481 7.7615 18.2481C11.7605 18.2481 15.4805 17.6976 18.92 16.5981C19.2005 17.1576 19.4915 17.7876 19.79 18.4881C17.81 18.9276 15.779 19.9971 13.6985 21.6981C11.618 23.3991 10.1 25.1886 9.14 27.0681C7.04 24.6876 5.99 21.9381 5.99 18.8181V18.8181ZM18.5 31.3281C15.659 31.3281 13.109 30.4476 10.8485 28.6896C11.75 26.9091 13.1345 25.2066 15.005 23.5881C16.874 21.9681 18.7295 20.9586 20.57 20.5581C21.731 23.7666 22.5162 27.0988 22.91 30.4881C21.5043 31.0374 20.0092 31.3222 18.5 31.3281V31.3281ZM29.12 25.3881C28.1382 26.9699 26.8161 28.313 25.25 29.3196C24.89 26.1996 24.2 23.1591 23.1815 20.1981C24.5795 20.0991 25.829 20.0481 26.9315 20.0481C28.13 20.0481 29.4605 20.0991 30.92 20.1981C30.7242 22.0429 30.1084 23.8183 29.12 25.3881ZM27.26 17.8881C25.52 17.8881 23.9105 17.9586 22.43 18.0981C22.1164 17.2773 21.7762 16.4669 21.41 15.6681C24.509 14.3091 26.708 12.6591 28.0085 10.7181C29.8085 12.8391 30.7895 15.2586 30.9485 17.9781C29.7305 17.9181 28.5005 17.8881 27.26 17.8881V17.8881Z" fill="black"/>
</svg>
