<svg width="104" height="35" viewBox="0 0 104 35" fill="none" xmlns="http://www.w3.org/2000/svg">
<path fill-rule="evenodd" clip-rule="evenodd" d="M13.8801 12.4916V16.0961L22.4951 16.0923C22.2308 18.0804 21.5604 19.536 20.5415 20.5549C19.2851 21.8113 17.3238 23.1942 13.8801 23.1942C8.57099 23.1942 4.41866 18.9154 4.41866 13.6063C4.41866 8.29711 8.57099 4.01838 13.8801 4.01838C16.7454 4.01838 18.8369 5.14456 20.3806 6.59251L22.9241 4.04902C20.7713 1.99201 17.9061 0.413818 13.884 0.413818C6.61357 0.413818 0.5 6.33586 0.5 13.6063C0.5 20.8767 6.61357 26.7987 13.884 26.7987C17.8065 26.7987 20.7675 25.5117 23.085 23.0984C25.4676 20.7158 26.2069 17.3717 26.2069 14.6673C26.2069 13.8629 26.1456 13.1198 26.0269 12.4916H13.8801ZM86.5494 26.2814V1.38273H82.9104V26.2814H86.5494ZM36.1778 26.8025C40.8741 26.8025 44.7008 23.1979 44.7008 18.3063C44.7008 13.3802 40.8741 9.81013 36.1778 9.81013C31.4816 9.81013 27.6548 13.3802 27.6548 18.3063C27.6548 23.1979 31.4816 26.8025 36.1778 26.8025ZM36.1778 13.158C38.752 13.158 40.9699 15.2495 40.9699 18.3063C40.9699 21.3286 38.752 23.4546 36.1778 23.4546C33.6037 23.4546 31.3858 21.3325 31.3858 18.3063C31.3858 15.2495 33.6037 13.158 36.1778 13.158ZM54.5646 26.8025C59.2609 26.8025 63.0876 23.1979 63.0876 18.3063C63.0876 13.3802 59.2609 9.81013 54.5646 9.81013C49.8684 9.81013 46.0416 13.384 46.0416 18.3063C46.0416 23.1979 49.8684 26.8025 54.5646 26.8025ZM54.5646 13.158C57.1388 13.158 59.3567 15.2495 59.3567 18.3063C59.3567 21.3286 57.1388 23.4546 54.5646 23.4546C51.9905 23.4546 49.7726 21.3325 49.7726 18.3063C49.7726 15.2495 51.9905 13.158 54.5646 13.158ZM80.7082 10.3273V25.5767C80.7082 31.8512 77.0079 34.4138 72.6334 34.4138C68.5155 34.4138 66.0371 31.6596 65.1025 29.4073L68.3508 28.0551C68.9292 29.4379 70.3465 31.0697 72.6295 31.0697C75.4297 31.0697 77.1649 29.3422 77.1649 26.09V24.8681H77.0347C76.1996 25.8985 74.5908 26.7987 72.5606 26.7987C68.3125 26.7987 64.4206 23.0983 64.4206 18.337C64.4206 13.5411 68.3125 9.81013 72.5606 9.81013C74.5869 9.81013 76.1958 10.7103 77.0347 11.7101H77.1649V10.3273H80.7082ZM77.4292 18.337C77.4292 15.3453 75.4335 13.158 72.8938 13.158C70.3197 13.158 68.1631 15.3453 68.1631 18.337C68.1631 21.298 70.3197 23.4546 72.8938 23.4546C75.4335 23.4546 77.4292 21.298 77.4292 18.337ZM100.731 21.1025L103.626 23.0331C102.692 24.416 100.439 26.7986 96.5476 26.7986C91.7211 26.7986 88.1165 23.0676 88.1165 18.3024C88.1165 13.2499 91.7517 9.80622 96.13 9.80622C100.539 9.80622 102.696 13.315 103.4 15.2111L103.787 16.1764L92.4297 20.8804C93.2992 22.585 94.6514 23.4545 96.5476 23.4545C98.4475 23.4545 99.7652 22.5198 100.731 21.1025ZM91.8168 18.0458L99.409 14.8932C98.9915 13.8321 97.735 13.0928 96.2564 13.0928C94.3603 13.0928 91.7211 14.7668 91.8168 18.0458Z" fill="#2D2D2D"/>
</svg>
