<svg width="36" height="37" viewBox="0 0 36 37" fill="none" xmlns="http://www.w3.org/2000/svg">
<path d="M17.9984 11.8934C16.1589 11.8934 14.3947 12.6242 13.0939 13.925C11.7932 15.2257 11.0624 16.9899 11.0624 18.8294C11.0624 20.669 11.7932 22.4332 13.0939 23.7339C14.3947 25.0347 16.1589 25.7654 17.9984 25.7654C19.838 25.7654 21.6022 25.0347 22.9029 23.7339C24.2037 22.4332 24.9344 20.669 24.9344 18.8294C24.9344 16.9899 24.2037 15.2257 22.9029 13.925C21.6022 12.6242 19.838 11.8934 17.9984 11.8934ZM17.9984 23.3339C16.8034 23.3339 15.6572 22.8592 14.8122 22.0142C13.9672 21.1691 13.4924 20.023 13.4924 18.8279C13.4924 17.6329 13.9672 16.4868 14.8122 15.6417C15.6572 14.7967 16.8034 14.3219 17.9984 14.3219C19.1935 14.3219 20.3396 14.7967 21.1847 15.6417C22.0297 16.4868 22.5044 17.6329 22.5044 18.8279C22.5044 20.023 22.0297 21.1691 21.1847 22.0142C20.3396 22.8592 19.1935 23.3339 17.9984 23.3339Z" fill="black"/>
<path d="M25.2089 13.2554C26.102 13.2554 26.8259 12.5315 26.8259 11.6384C26.8259 10.7454 26.102 10.0214 25.2089 10.0214C24.3159 10.0214 23.5919 10.7454 23.5919 11.6384C23.5919 12.5315 24.3159 13.2554 25.2089 13.2554Z" fill="black"/>
<path d="M30.7994 9.99445C30.4522 9.09772 29.9215 8.28337 29.2414 7.60354C28.5613 6.9237 27.7468 6.39336 26.8499 6.04645C25.8004 5.65248 24.6917 5.43946 23.5709 5.41645C22.1264 5.35345 21.6689 5.33545 18.0059 5.33545C14.3429 5.33545 13.8734 5.33545 12.4409 5.41645C11.321 5.43828 10.2131 5.65135 9.16493 6.04645C8.26783 6.39295 7.45308 6.92315 6.77293 7.60304C6.09279 8.28293 5.56227 9.09749 5.21543 9.99445C4.82139 11.0439 4.60885 12.1527 4.58693 13.2734C4.52243 14.7164 4.50293 15.1739 4.50293 18.8385C4.50293 22.5014 4.50293 22.968 4.58693 24.4035C4.60943 25.5254 4.82093 26.6325 5.21543 27.684C5.56325 28.5806 6.09427 29.3948 6.77458 30.0746C7.45489 30.7544 8.26953 31.2848 9.16643 31.6319C10.2126 32.0417 11.321 32.27 12.4439 32.3069C13.8884 32.3699 14.3459 32.3895 18.0089 32.3895C21.6719 32.3895 22.1414 32.3895 23.5739 32.3069C24.6946 32.2842 25.8033 32.0717 26.8529 31.6785C27.7496 31.3307 28.5639 30.7999 29.2439 30.1199C29.9239 29.4399 30.4547 28.6256 30.8024 27.729C31.1969 26.679 31.4084 25.572 31.4309 24.45C31.4954 23.007 31.5149 22.5494 31.5149 18.885C31.5149 15.2204 31.5149 14.7555 31.4309 13.3199C31.4135 12.1834 31.1998 11.0583 30.7994 9.99445ZM28.9724 24.2924C28.9628 25.1569 28.805 26.0133 28.5059 26.8244C28.2807 27.4078 27.9358 27.9375 27.4935 28.3795C27.0513 28.8215 26.5214 29.166 25.9379 29.3909C25.1358 29.6886 24.2885 29.8464 23.4329 29.8575C22.0079 29.9235 21.6059 29.94 17.9519 29.94C14.2949 29.94 13.9214 29.94 12.4694 29.8575C11.6143 29.847 10.7674 29.6892 9.96593 29.3909C9.38046 29.1674 8.84843 28.8235 8.40426 28.3814C7.9601 27.9393 7.61368 27.4089 7.38743 26.8244C7.0926 26.022 6.9349 25.1757 6.92093 24.3209C6.85643 22.896 6.84143 22.494 6.84143 18.84C6.84143 15.1845 6.84143 14.8109 6.92093 13.3574C6.93063 12.4935 7.08841 11.6376 7.38743 10.8269C7.84493 9.64345 8.78243 8.71195 9.96593 8.25895C10.7678 7.96216 11.6145 7.80439 12.4694 7.79245C13.8959 7.72795 14.2964 7.70995 17.9519 7.70995C21.6074 7.70995 21.9824 7.70995 23.4329 7.79245C24.2885 7.80274 25.136 7.96056 25.9379 8.25895C26.5213 8.48436 27.0511 8.82925 27.4934 9.27149C27.9356 9.71374 28.2805 10.2436 28.5059 10.8269C28.8008 11.6294 28.9585 12.4757 28.9724 13.3304C29.0369 14.7569 29.0534 15.1574 29.0534 18.813C29.0534 22.4669 29.0534 22.86 28.9889 24.294H28.9724V24.2924Z" fill="black"/>
</svg>
