<svg width="40" height="48" viewBox="0 0 40 48" fill="none" xmlns="http://www.w3.org/2000/svg">
<path fill-rule="evenodd" clip-rule="evenodd" d="M28.905 0.928402C26.9283 1.1189 24.6076 2.26384 22.9793 3.8519C21.2374 5.55082 20.0604 7.91249 19.854 10.1225C19.8223 10.4619 19.8369 11.2694 19.8787 11.4951L19.9071 11.6475L20.1032 11.6754C20.3895 11.716 21.0941 11.6916 21.456 11.6285C22.8372 11.3877 24.2755 10.7079 25.561 9.68849C25.9497 9.38025 26.6684 8.65286 27.0223 8.20956C27.5373 7.56436 27.9746 6.87485 28.3276 6.15134C28.8418 5.0976 29.1464 4.10076 29.3129 2.9268C29.3611 2.58751 29.3833 1.53034 29.348 1.25735C29.2992 0.880423 29.3085 0.902446 29.2004 0.905968C29.1483 0.90766 29.0154 0.917768 28.905 0.928402ZM28.0195 12.239C27.4872 12.2704 26.7653 12.3867 26.1328 12.5431C25.3 12.7489 24.6751 12.9612 23.2055 13.5379C22.0132 14.0058 21.6434 14.1361 21.1638 14.2576C20.5553 14.4116 20.0215 14.4078 19.3635 14.2446C18.8976 14.1291 18.5572 14.008 17.3326 13.5225C16.1543 13.0553 15.7246 12.8997 15.167 12.7385C13.8092 12.3458 12.7257 12.2584 11.3593 12.4314C9.88602 12.618 8.46052 13.1063 7.17427 13.8649C4.6736 15.3399 2.8054 17.722 1.7995 20.7183C1.05655 22.9314 0.796441 25.4402 1.02408 28.1972C1.23253 30.7216 1.84965 33.4011 2.80693 35.9384C3.4214 37.5669 4.2524 39.2826 5.07772 40.6265C5.83229 41.8552 7.35313 43.9181 8.29799 44.9945C10.0555 46.9968 11.6855 47.8495 13.5068 47.7195C14.4658 47.6511 15.0739 47.4802 16.55 46.8642C17.5023 46.4669 17.9 46.3183 18.3926 46.1758C19.8818 45.7451 21.5646 45.7073 23.0226 46.0717C23.6327 46.2242 23.9839 46.3512 25.0236 46.7953C26.3132 47.3462 26.8072 47.5019 27.6193 47.6134C27.9798 47.6629 28.7529 47.6822 29.06 47.6492C30.4792 47.4972 31.7743 46.7926 33.0627 45.4715C33.8489 44.6653 34.6443 43.6517 35.788 41.9987C37.0488 40.1763 38.1716 37.9516 38.8697 35.8926C39.0819 35.2669 39.0832 35.2609 39.0152 35.2399C38.785 35.1687 37.9041 34.6852 37.4415 34.3763C34.7986 32.6107 33.2029 30.0655 32.8581 27.0651C32.5712 24.5696 33.1217 22.1959 34.4571 20.1701C35.2311 18.9958 36.3497 17.876 37.5502 17.0737C37.7042 16.9707 37.8303 16.8753 37.8303 16.8618C37.8303 16.8231 37.5164 16.4029 37.2438 16.0769C35.3167 13.7715 32.5929 12.4468 29.3687 12.2467C29.0216 12.2252 28.3215 12.2211 28.0195 12.239Z" fill="#2D2D2D"/>
</svg>
